<svg width="14" height="18" viewBox="0 0 14 18" fill="none" xmlns="http://www.w3.org/2000/svg">
<path d="M6.64383 17.0658C5.48314 16.0499 4.40728 14.9361 3.42751 13.7362C1.95719 11.9341 0.211182 9.25039 0.211182 6.69302C0.209879 4.02206 1.7773 1.61354 4.18203 0.591352C6.58676 -0.430835 9.35479 0.1348 11.1945 2.02431C12.4042 3.26019 13.0819 4.94132 13.0765 6.69302C13.0765 9.25039 11.3305 11.9341 9.86016 13.7362C8.88039 14.9361 7.80453 16.0499 6.64383 17.0658ZM6.64383 3.86407C5.65891 3.86407 4.74879 4.40327 4.25633 5.27855C3.76387 6.15382 3.76387 7.23221 4.25633 8.10749C4.74879 8.98277 5.65891 9.52197 6.64383 9.52197C8.1664 9.52197 9.40068 8.25541 9.40068 6.69302C9.40068 5.13063 8.1664 3.86407 6.64383 3.86407Z" fill="#D9DFE8"/>
</svg>
