<svg width="7" height="10" viewBox="0 0 7 10" fill="none" xmlns="http://www.w3.org/2000/svg">
<path d="M3.49998 9.5C2.86845 8.96143 2.28308 8.37099 1.74999 7.73486C0.949996 6.77956 4.41829e-07 5.35685 4.41829e-07 4.00113C-0.000708635 2.5852 0.852119 1.30838 2.16052 0.7665C3.46893 0.224615 4.97501 0.524471 5.97597 1.52614C6.6342 2.18131 7.00292 3.07252 6.99998 4.00113C6.99998 5.35685 6.04997 6.77956 5.24997 7.73486C4.71688 8.37099 4.13151 8.96143 3.49998 9.5ZM3.49998 2.50144C2.96409 2.50144 2.4689 2.78728 2.20095 3.25129C1.933 3.71529 1.933 4.28697 2.20095 4.75098C2.4689 5.21499 2.96409 5.50082 3.49998 5.50082C4.32841 5.50082 4.99998 4.82939 4.99998 4.00113C4.99998 3.17288 4.32841 2.50144 3.49998 2.50144Z" fill="#79819A"/>
</svg>
