<svg width="37" height="37" viewBox="0 0 37 37" fill="none" xmlns="http://www.w3.org/2000/svg">
<path d="M18.105 0.5C8.10581 0.5 0 8.60581 0 18.605C0 28.6042 8.10581 36.71 18.105 36.71C28.1042 36.71 36.21 28.6042 36.21 18.605C36.21 8.60581 28.1042 0.5 18.105 0.5Z" fill="#40B3E0"/>
<path d="M27 11.1024L23.995 26.7923C23.995 26.7923 23.5748 27.8804 22.419 27.3582L15.4844 21.8525L12.9628 20.5904L8.71805 19.1105C8.71805 19.1105 8.06663 18.8712 8.00354 18.3489C7.94058 17.8267 8.73908 17.5438 8.73908 17.5438L25.613 10.6889C25.613 10.6889 27 10.0579 27 11.1024Z" fill="white"/>
<path d="M15.03 26.5C15.03 26.5 14.8233 26.4802 14.5658 25.6463C14.3085 24.8125 13 20.424 13 20.424L23.4036 13.6658C23.4036 13.6658 24.0043 13.2928 23.9829 13.6658C23.9829 13.6658 24.0901 13.7315 23.7683 14.0387C23.4466 14.346 15.5955 21.565 15.5955 21.565" fill="#D2E5F1"/>
<path d="M18 23.7268L15.422 26.3992C15.422 26.3992 15.2205 26.5731 15 26.4641L15.4937 21.5" fill="#B5CFE4"/>
</svg>
