<svg width="37" height="37" viewBox="0 0 37 37" fill="none" xmlns="http://www.w3.org/2000/svg">
<rect y="0.5" width="36.21" height="36.21" rx="18.105" fill="#5281B8"/>
<path d="M18.9852 26.4378C19.3025 26.3776 19.8737 26.2572 19.8737 25.5347C19.8737 25.5347 19.8103 23.7284 20.6988 23.4876C21.5873 23.2468 22.7297 25.2336 23.9355 26.0163C24.8241 26.5582 25.5222 26.498 25.5222 26.498L28.759 26.4378C28.759 26.4378 30.4091 26.3174 29.6475 25.053C29.584 24.9326 29.0763 24.1499 27.1723 22.5243C25.2049 20.7181 25.5222 21.0191 27.8704 17.9485C29.3302 16.0821 29.9648 14.9381 29.7744 14.5166C29.5205 14.0952 28.5051 14.1554 28.5051 14.1554H24.8875C24.5067 14.1554 24.3163 14.2156 24.1259 14.5166C24.1259 14.5166 23.5548 16.0218 22.7932 17.226C21.2065 19.8149 20.5719 19.9354 20.2545 19.7547C19.6833 19.4537 19.8103 18.3097 19.8103 17.527C19.8103 14.8177 20.2545 13.8544 18.9852 13.6135C18.1601 13.4931 15.2407 13.3727 14.3522 13.7942C13.9079 14.035 13.6541 14.4564 13.8445 14.5166C14.0349 14.5166 14.6061 14.5769 14.9234 14.9381C15.4311 15.7208 15.4946 19.4537 14.7965 19.8149C13.8445 20.4772 11.4328 16.0821 10.8616 14.6371C10.7346 14.2758 10.5442 14.2156 10.1 14.0952H6.60935C6.22855 14.0952 5.65736 14.1554 5.91122 14.8779C7.6248 18.2495 11.1789 26.498 17.589 26.4378H18.9852Z" fill="white"/>
</svg>
