<svg width="44" height="42" viewBox="0 0 44 42" fill="none" xmlns="http://www.w3.org/2000/svg">
<path d="M37.0846 8.9409C37.0846 8.9409 38.1932 10.1183 39.7418 10.1183C40.9647 10.1183 41.8533 9.38615 41.8533 8.38327C41.8533 7.15477 40.718 6.58778 39.3456 6.58778H38.5361L38.0523 5.50742L40.199 2.98828C40.657 2.44768 41.0438 2.10799 41.0438 2.10799C41.0438 2.10799 40.7009 2.12587 40.0056 2.12587H36.5131V0.3125H43.6657V1.6372L40.7971 4.92339C42.4162 5.14985 44 6.29151 44 8.30494C44 10.2835 42.4866 12.1139 39.8733 12.1139C37.3837 12.1139 36.0027 10.5627 36.0027 10.5627L37.0846 8.9409ZM0.0971094 39.3518H1.47813C1.47813 39.752 1.83047 40.1359 2.45438 40.1359C3.03531 40.1359 3.42289 39.8482 3.42289 39.4651C3.42289 39.1339 3.16766 38.9858 2.72766 38.8896L1.93531 38.6886C0.598125 38.3404 0.255234 37.6347 0.255234 36.8846C0.255234 35.9694 1.17047 35.1326 2.46383 35.1326C3.51914 35.1326 4.71625 35.6647 4.6982 36.9723H3.29914C3.29914 36.5714 2.92961 36.3185 2.50766 36.3185C2.04961 36.3185 1.73336 36.5799 1.73336 36.9459C1.73336 37.2507 2.02383 37.4253 2.36672 37.5036L3.31719 37.7564C4.65438 38.0961 4.89156 38.9245 4.89156 39.4651C4.89156 40.6587 3.68672 41.3125 2.48102 41.3125C1.31141 41.3125 0.122891 40.6067 0.0971094 39.3518ZM39.0294 39.3518H40.4104C40.4104 39.752 40.7627 40.1359 41.3866 40.1359C41.9676 40.1359 42.3552 39.8482 42.3552 39.4651C42.3552 39.1339 42.0999 38.9858 41.6599 38.8896L40.8676 38.6886C39.5304 38.3404 39.1875 37.6347 39.1875 36.8846C39.1875 35.9694 40.1027 35.1326 41.3961 35.1326C42.4514 35.1326 43.6477 35.6647 43.6305 36.9723H42.2228C42.2228 36.5714 41.8533 36.3185 41.4305 36.3185C40.9733 36.3185 40.657 36.5799 40.657 36.9459C40.657 37.2507 40.9475 37.4253 41.2904 37.5036L42.24 37.7564C43.578 38.0961 43.8152 38.9245 43.8152 39.4651C43.8152 40.6587 42.6104 41.3125 41.4047 41.3125C40.2342 41.3125 39.0552 40.6067 39.0294 39.3518ZM35.9408 41.1644V32.0822H37.4189V41.1644H35.9408ZM27.9873 38.2187C27.9873 36.3534 29.4473 35.1326 31.1369 35.1326C32.8264 35.1326 34.3045 36.3534 34.3045 38.2187C34.3045 40.084 32.8264 41.3125 31.1369 41.3125C29.4568 41.3125 27.9873 40.084 27.9873 38.2187ZM32.8178 38.2187C32.8178 37.2073 32.0521 36.4922 31.1369 36.4922C30.2216 36.4922 29.474 37.2073 29.474 38.2187C29.474 39.2471 30.2216 39.9529 31.1369 39.9529C32.0607 39.9529 32.8178 39.2471 32.8178 38.2187ZM20.4119 38.2187C20.4119 36.3534 21.8728 35.1326 23.5615 35.1326C25.251 35.1326 26.7291 36.3534 26.7291 38.2187C26.7291 40.084 25.251 41.3125 23.5615 41.3125C21.8728 41.3125 20.4119 40.084 20.4119 38.2187ZM25.2424 38.2187C25.2424 37.2073 24.4767 36.4922 23.5615 36.4922C22.6463 36.4922 21.8986 37.2073 21.8986 38.2187C21.8986 39.2471 22.6463 39.9529 23.5615 39.9529C24.4767 39.9529 25.2424 39.2471 25.2424 38.2187ZM18.8633 37.8611V41.1558H17.3852V37.9659C17.3852 37.0243 16.8137 36.5186 16.1537 36.5186C15.4765 36.5186 14.6403 36.911 14.6403 38.0527V41.1644H13.1622V32.0822H14.6489V36.1704C14.9394 35.4552 15.8984 35.1241 16.488 35.1241C18.0185 35.1326 18.8633 36.1525 18.8633 37.8611ZM6.11531 38.2187C6.11531 36.3534 7.62781 35.1326 9.34398 35.1326C10.3735 35.1326 11.2088 35.5863 11.7545 36.2657L10.7164 37.0856C10.4087 36.7195 9.90687 36.4922 9.37063 36.4922C8.34109 36.4922 7.60203 37.2243 7.60203 38.2187C7.60203 39.2029 8.34109 39.9529 9.37063 39.9529C9.90687 39.9529 10.4087 39.7264 10.7164 39.3604L11.7545 40.1794C11.2088 40.8596 10.3735 41.3125 9.34398 41.3125C7.62781 41.3125 6.11531 40.084 6.11531 38.2187ZM23.1309 11.3911L32.5798 28.0562L37.2427 19.8194L28.3216 4.08652H17.9395L13.6374 11.678L9.33539 4.08652H0L13.5841 28.0562L13.6374 27.9685L13.6898 28.0562L23.1309 11.3911Z" fill="#04AA6D"/>
</svg>
