<svg width="16" height="17" viewBox="0 0 16 17" fill="none" xmlns="http://www.w3.org/2000/svg">
<path d="M5.17307 16.8373C3.48113 16.8373 1.95579 15.6488 1.30821 13.826C0.660623 12.0032 1.01832 9.90497 2.21451 8.50961L3.98998 6.43914L5.17307 7.8188L3.39844 9.88829C2.76427 10.6278 2.5166 11.7057 2.74872 12.7159C2.98084 13.7262 3.65749 14.5152 4.52377 14.7859C5.39005 15.0566 6.31437 14.7678 6.94853 14.0282L8.72316 11.9588L9.90625 13.3394L8.13162 15.4089C7.34853 16.3266 6.28324 16.8409 5.17307 16.8373ZM5.76461 12.6486L4.58152 11.2689L10.4978 4.36965L11.6809 5.74931L5.76545 12.6476L5.76461 12.6486ZM12.2733 10.5791L11.0893 9.19944L12.864 7.12994C13.5068 6.39263 13.7611 5.30991 13.5302 4.29352C13.2993 3.27714 12.6187 2.48325 11.7472 2.21375C10.8756 1.94426 9.94712 2.24056 9.31471 2.98999L7.53924 5.05948L6.35615 3.67982L8.13162 1.60935C9.76743 -0.281615 12.4063 -0.274877 14.035 1.62443C15.6637 3.52373 15.6694 6.60103 14.0479 8.50863L12.2733 10.5781V10.5791Z" fill="#E2E6EE"/>
</svg>
