<svg width="43" height="34" viewBox="0 0 43 34" fill="none" xmlns="http://www.w3.org/2000/svg">
<g clip-path="url(#clip0_1_4800)">
<mask id="mask0_1_4800" style="mask-type:alpha" maskUnits="userSpaceOnUse" x="-4" y="-3" width="51" height="40">
<path d="M41.8056 -2.04004H1.19444C-1.44425 -2.04004 -3.58334 0.258233 -3.58334 3.09329V31.3266C-3.58334 34.1617 -1.44425 36.46 1.19444 36.46H41.8056C44.4443 36.46 46.5833 34.1617 46.5833 31.3266V3.09329C46.5833 0.258233 44.4443 -2.04004 41.8056 -2.04004Z" fill="white"/>
</mask>
<g mask="url(#mask0_1_4800)">
<path d="M41.8056 -2.04004H1.19444C-1.44425 -2.04004 -3.58334 0.258233 -3.58334 3.09329V31.3266C-3.58334 34.1617 -1.44425 36.46 1.19444 36.46H41.8056C44.4443 36.46 46.5833 34.1617 46.5833 31.3266V3.09329C46.5833 0.258233 44.4443 -2.04004 41.8056 -2.04004Z" fill="#22438B"/>
<path fill-rule="evenodd" clip-rule="evenodd" d="M3.58333 0.526627L-1.25656 0.59336L-1.19445 5.65996L39.3737 33.9652L44.2398 33.8702L44.1491 28.8344L3.58333 0.526627Z" fill="white"/>
<path fill-rule="evenodd" clip-rule="evenodd" d="M1.19444 0.526627L-1.19445 3.09329L41.8055 33.8933L44.1944 31.3266L1.19444 0.526627Z" fill="#C7152A"/>
<path fill-rule="evenodd" clip-rule="evenodd" d="M39.4167 0.526627H44.1944V5.65996C44.1944 5.65996 16.125 24.643 3.62633 33.9652C3.47583 34.0781 -1.14667 33.9729 -1.14667 33.9729L-1.51694 29.0936L39.4167 0.526627Z" fill="white"/>
<path fill-rule="evenodd" clip-rule="evenodd" d="M41.9083 0.454758L44.1944 3.09329L1.19444 33.8933L-1.19445 31.3266L41.9083 0.454758Z" fill="#C7152A"/>
<path fill-rule="evenodd" clip-rule="evenodd" d="M15.5278 0.526627H27.4722V10.7933H44.1944V23.6266H27.4722V33.8933H15.5278V23.6266H-1.19445V10.7933H15.5278V0.526627Z" fill="white"/>
<path fill-rule="evenodd" clip-rule="evenodd" d="M17.9167 0.526627H25.0833V13.36H44.1944V21.06H25.0833V33.8933H17.9167V21.06H-1.19445V13.36H17.9167V0.526627Z" fill="#C7152A"/>
<path d="M41.8056 -0.756706H1.19444C-0.78458 -0.756706 -2.38889 0.966998 -2.38889 3.09329V31.3266C-2.38889 33.4529 -0.78458 35.1766 1.19444 35.1766H41.8056C43.7846 35.1766 45.3889 33.4529 45.3889 31.3266V3.09329C45.3889 0.966998 43.7846 -0.756706 41.8056 -0.756706Z" stroke="black" stroke-opacity="0.1"/>
</g>
</g>
<defs>
<clipPath id="clip0_1_4800">
<rect width="50.1667" height="38.5" fill="white" transform="translate(-3.58334 -2.04004)"/>
</clipPath>
</defs>
</svg>
