<svg width="37" height="37" viewBox="0 0 37 37" fill="none" xmlns="http://www.w3.org/2000/svg">
<rect x="0.151711" y="0.5" width="36.21" height="36.21" rx="18.105" fill="url(#paint0_radial_1_4759)"/>
<rect x="0.151711" y="0.5" width="36.21" height="36.21" rx="18.105" fill="url(#paint1_radial_1_4759)" fill-opacity="0.2"/>
<path d="M15.1526 19C15.1526 17.0671 16.7191 15.4997 18.6521 15.4997C20.5851 15.4997 22.1526 17.0671 22.1526 19C22.1526 20.9329 20.5851 22.5003 18.6521 22.5003C16.7191 22.5003 15.1526 20.9329 15.1526 19ZM13.2603 19C13.2603 21.9778 15.6742 24.3916 18.6521 24.3916C21.63 24.3916 24.044 21.9778 24.044 19C24.044 16.0222 21.63 13.6084 18.6521 13.6084C15.6742 13.6084 13.2604 16.022 13.2604 19H13.2603ZM22.9975 13.3946C22.9974 13.6438 23.0712 13.8874 23.2095 14.0947C23.3479 14.302 23.5446 14.4635 23.7748 14.559C24.005 14.6545 24.2584 14.6795 24.5028 14.631C24.7473 14.5825 24.9718 14.4626 25.1481 14.2864C25.3244 14.1103 25.4445 13.8858 25.4932 13.6414C25.542 13.397 25.5171 13.1437 25.4218 12.9134C25.3266 12.6831 25.1651 12.4863 24.958 12.3477C24.7508 12.2092 24.5072 12.1352 24.258 12.1351H24.2575C23.9235 12.1353 23.6031 12.268 23.3669 12.5041C23.1306 12.7403 22.9977 13.0606 22.9975 13.3946ZM14.41 27.5468C13.3862 27.5002 12.8298 27.3297 12.46 27.1856C11.9697 26.9948 11.62 26.7675 11.2522 26.4002C10.8844 26.033 10.6568 25.6835 10.4668 25.1933C10.3226 24.8237 10.1521 24.2671 10.1055 23.2434C10.0546 22.1366 10.0445 21.8042 10.0445 19.0002C10.0445 16.1962 10.0555 15.8646 10.1055 14.7569C10.1522 13.7332 10.324 13.1777 10.4668 12.807C10.6576 12.3168 10.8849 11.967 11.2522 11.5993C11.6195 11.2315 11.9689 11.0039 12.46 10.8139C12.8296 10.6697 13.3862 10.4992 14.41 10.4527C15.5168 10.4018 15.8493 10.3916 18.6521 10.3916C21.455 10.3916 21.7878 10.4024 22.8956 10.4528C23.9193 10.4995 24.4748 10.6712 24.8455 10.814C25.3358 11.004 25.6856 11.2322 26.0533 11.5994C26.4211 11.9667 26.6479 12.317 26.8388 12.8072C26.9829 13.1768 27.1534 13.7334 27.2 14.7571C27.2509 15.8648 27.261 16.1963 27.261 19.0003C27.261 21.8043 27.2509 22.1359 27.2 23.2436C27.1534 24.2673 26.982 24.8237 26.8388 25.1935C26.6479 25.6837 26.4206 26.0335 26.0533 26.4004C25.6861 26.7673 25.3358 26.995 24.8455 27.1858C24.4759 27.3299 23.9193 27.5005 22.8956 27.547C21.7887 27.5979 21.4562 27.6081 18.6521 27.6081C15.848 27.6081 15.5165 27.5979 14.41 27.547V27.5468ZM14.323 8.56359C13.2052 8.61449 12.4413 8.79173 11.7743 9.05129C11.0838 9.31934 10.4986 9.67894 9.91418 10.2624C9.32977 10.8459 8.97108 11.4312 8.70302 12.1224C8.44345 12.7899 8.26621 13.5533 8.2153 14.6711C8.16356 15.7906 8.15171 16.1485 8.15171 19C8.15171 21.8515 8.16356 22.2094 8.2153 23.3289C8.26621 24.4468 8.44345 25.2101 8.70302 25.8776C8.97108 26.568 9.32986 27.1544 9.91418 27.7376C10.4985 28.3208 11.083 28.6799 11.7743 28.9487C12.4426 29.2083 13.2052 29.3855 14.323 29.4364C15.4432 29.4873 15.8006 29.5 18.6521 29.5C21.5037 29.5 21.8616 29.4882 22.9812 29.4364C24.0992 29.3855 24.8625 29.2083 25.53 28.9487C26.2204 28.6799 26.8057 28.3211 27.3901 27.7376C27.9745 27.1541 28.3324 26.568 28.6012 25.8776C28.8608 25.2101 29.0389 24.4467 29.089 23.3289C29.1399 22.2085 29.1517 21.8515 29.1517 19C29.1517 16.1485 29.1399 15.7906 29.089 14.6711C29.0381 13.5532 28.8608 12.7895 28.6012 12.1224C28.3324 11.432 27.9736 10.8468 27.3901 10.2624C26.8066 9.67802 26.2204 9.31934 25.5308 9.05129C24.8625 8.79173 24.0991 8.61365 22.9821 8.56359C21.8623 8.51243 21.5045 8.5 18.6534 8.5C15.8022 8.5 15.4436 8.51184 14.3234 8.56359" fill="white"/>
<defs>
<radialGradient id="paint0_radial_1_4759" cx="0" cy="0" r="1" gradientUnits="userSpaceOnUse" gradientTransform="translate(2.49518 35.9168) scale(45.9733)">
<stop offset="0.09" stop-color="#FA8F21"/>
<stop offset="0.78" stop-color="#D82D7E"/>
</radialGradient>
<radialGradient id="paint1_radial_1_4759" cx="0" cy="0" r="1" gradientUnits="userSpaceOnUse" gradientTransform="translate(18.2567 35.5784) scale(28.2891)">
<stop offset="0.713542" stop-color="#8C3AAA" stop-opacity="0"/>
<stop offset="1" stop-color="#8C3AAA"/>
</radialGradient>
</defs>
</svg>
