<svg width="22" height="22" viewBox="0 0 22 22" fill="none" xmlns="http://www.w3.org/2000/svg">
<path d="M7.15255 11C7.15255 9.06708 8.71913 7.49972 10.6521 7.49972C12.5851 7.49972 14.1526 9.06708 14.1526 11C14.1526 12.9329 12.5851 14.5003 10.6521 14.5003C8.71913 14.5003 7.15255 12.9329 7.15255 11ZM5.26029 11C5.26029 13.9778 7.67421 16.3916 10.6521 16.3916C13.63 16.3916 16.044 13.9778 16.044 11C16.044 8.0222 13.63 5.60838 10.6521 5.60838C7.67421 5.60838 5.26038 8.02203 5.26038 11H5.26029ZM14.9975 5.3946C14.9974 5.6438 15.0712 5.88744 15.2095 6.0947C15.3479 6.30196 15.5446 6.46354 15.7748 6.559C16.005 6.65445 16.2584 6.67951 16.5028 6.63099C16.7473 6.58247 16.9718 6.46255 17.1481 6.28641C17.3244 6.11027 17.4445 5.8858 17.4932 5.64141C17.542 5.39701 17.5171 5.14366 17.4218 4.91338C17.3266 4.68311 17.1651 4.48626 16.958 4.34773C16.7508 4.20919 16.5072 4.1352 16.258 4.1351H16.2575C15.9235 4.13526 15.6031 4.26799 15.3669 4.50414C15.1306 4.74029 14.9977 5.06056 14.9975 5.3946ZM6.40996 19.5468C5.38621 19.5002 4.82977 19.3297 4.45999 19.1856C3.96975 18.9948 3.61996 18.7675 3.25219 18.4002C2.88442 18.033 2.65677 17.6835 2.46676 17.1933C2.32261 16.8237 2.15208 16.2671 2.10554 15.2434C2.05464 14.1366 2.04447 13.8042 2.04447 11.0002C2.04447 8.19616 2.05548 7.86462 2.10554 6.75691C2.15217 5.7332 2.32395 5.17771 2.46676 4.80702C2.65761 4.31679 2.88493 3.96702 3.25219 3.59926C3.61945 3.23151 3.96891 3.00387 4.45999 2.81386C4.82961 2.66972 5.38621 2.4992 6.40996 2.45266C7.51679 2.40176 7.84927 2.3916 10.6521 2.3916C13.455 2.3916 13.7878 2.40243 14.8956 2.45283C15.9193 2.49945 16.4748 2.67123 16.8455 2.81403C17.3358 3.00404 17.6856 3.23218 18.0533 3.59943C18.4211 3.96668 18.6479 4.31696 18.8388 4.80718C18.9829 5.17678 19.1534 5.73337 19.2 6.75708C19.2509 7.86478 19.261 8.19633 19.261 11.0003C19.261 13.8043 19.2509 14.1359 19.2 15.2436C19.1534 16.2673 18.982 16.8237 18.8388 17.1935C18.6479 17.6837 18.4206 18.0335 18.0533 18.4004C17.6861 18.7673 17.3358 18.995 16.8455 19.1858C16.4759 19.3299 15.9193 19.5005 14.8956 19.547C13.7887 19.5979 13.4562 19.6081 10.6521 19.6081C7.84801 19.6081 7.51645 19.5979 6.40996 19.547V19.5468ZM6.32302 0.563588C5.20518 0.614492 4.44134 0.791732 3.77427 1.05129C3.08385 1.31934 2.4986 1.67894 1.91418 2.2624C1.32977 2.84587 0.971079 3.43118 0.703025 4.12242C0.443454 4.78988 0.266207 5.55327 0.215301 6.67106C0.163555 7.79061 0.151711 8.14854 0.151711 11C0.151711 13.8515 0.163555 14.2094 0.215301 15.3289C0.266207 16.4468 0.443454 17.2101 0.703025 17.8776C0.971079 18.568 1.32986 19.1544 1.91418 19.7376C2.49851 20.3208 3.08301 20.6799 3.77427 20.9487C4.4426 21.2083 5.20518 21.3855 6.32302 21.4364C7.4432 21.4873 7.80055 21.5 10.6521 21.5C13.5037 21.5 13.8616 21.4882 14.9812 21.4364C16.0992 21.3855 16.8625 21.2083 17.53 20.9487C18.2204 20.6799 18.8057 20.3211 19.3901 19.7376C19.9745 19.1541 20.3324 18.568 20.6012 17.8776C20.8608 17.2101 21.0389 16.4467 21.089 15.3289C21.1399 14.2085 21.1517 13.8515 21.1517 11C21.1517 8.14854 21.1399 7.79061 21.089 6.67106C21.0381 5.55319 20.8608 4.78946 20.6012 4.12242C20.3324 3.43202 19.9736 2.84679 19.3901 2.2624C18.8066 1.67802 18.2204 1.31934 17.5308 1.05129C16.8625 0.791732 16.0991 0.613652 14.9821 0.563588C13.8623 0.512432 13.5045 0.5 10.6534 0.5C7.80223 0.5 7.44362 0.511844 6.32344 0.563588" fill="white"/>
</svg>
