<svg width="16" height="16" viewBox="0 0 16 16" fill="none" xmlns="http://www.w3.org/2000/svg">
<path d="M14.3732 15.5053C6.43571 15.5165 0.411607 9.48118 0.420099 1.69186C0.420099 1.18317 0.836638 0.768494 1.35046 0.768494H3.80603C4.26709 0.768494 4.65877 1.10388 4.72647 1.55538C4.88874 2.63749 5.20698 3.69096 5.67152 4.68361L5.76713 4.8879C5.90006 5.17196 5.80996 5.50946 5.55261 5.6914C4.79215 6.22904 4.50153 7.31124 5.09396 8.15566C5.8374 9.21532 6.77453 10.1429 7.84466 10.8785C8.69757 11.4649 9.79054 11.1772 10.3336 10.4245C10.5175 10.1696 10.8586 10.0803 11.1457 10.212L11.3511 10.3062C12.3539 10.7661 13.4181 11.0811 14.5112 11.2417C14.9673 11.3087 15.3059 11.6965 15.3059 12.1529V14.5843C15.3059 15.0929 14.8884 15.5053 14.3746 15.5053L14.3732 15.5053Z" fill="#E2E6EE"/>
</svg>
