<svg width="25" height="14" viewBox="0 0 25 14" fill="none" xmlns="http://www.w3.org/2000/svg">
<path d="M13.9852 13.4378C14.3025 13.3776 14.8737 13.2572 14.8737 12.5347C14.8737 12.5347 14.8103 10.7284 15.6988 10.4876C16.5873 10.2468 17.7297 12.2336 18.9355 13.0163C19.8241 13.5582 20.5222 13.498 20.5222 13.498L23.759 13.4378C23.759 13.4378 25.4091 13.3174 24.6475 12.053C24.584 11.9326 24.0763 11.1499 22.1723 9.52429C20.2049 7.71806 20.5222 8.0191 22.8704 4.94849C24.3302 3.08205 24.9648 1.9381 24.7744 1.51665C24.5205 1.09519 23.5051 1.1554 23.5051 1.1554H19.8875C19.5067 1.1554 19.3163 1.21561 19.1259 1.51665C19.1259 1.51665 18.5548 3.02184 17.7932 4.226C16.2065 6.81494 15.5719 6.93535 15.2545 6.75473C14.6833 6.45369 14.8103 5.30974 14.8103 4.52704C14.8103 1.81769 15.2545 0.85436 13.9852 0.613529C13.1601 0.493113 10.2407 0.372698 9.35219 0.794153C8.90793 1.03498 8.65407 1.45644 8.84447 1.51665C9.03486 1.51665 9.60606 1.57685 9.92339 1.9381C10.4311 2.7208 10.4946 6.45369 9.79645 6.81494C8.84447 7.47722 6.43276 3.08205 5.86157 1.63706C5.73463 1.27582 5.54424 1.21561 5.09998 1.09519H1.60935C1.22855 1.09519 0.657361 1.1554 0.911225 1.87789C2.6248 5.24953 6.1789 13.498 12.589 13.4378H13.9852Z" fill="white"/>
</svg>
